<svg width="352" height="81" viewBox="0 0 352 81" fill="none" xmlns="http://www.w3.org/2000/svg">
<g clip-path="url(#clip0_138_7)">
<path d="M0 19.5H58V78H0V19.5Z" fill="black"/>
<path d="M7.16052 9.91287H51.0748V45.4717H7.16052V9.91287Z" fill="black"/>
<path d="M13.6049 0H44.2621V19.5H13.6049V0Z" fill="black"/>
<line x1="15.2245" y1="59.3333" x2="15.2245" y2="78" stroke="white" stroke-width="3"/>
<line x1="21.0033" y1="54.6667" x2="21.0033" y2="78" stroke="white" stroke-width="3"/>
<line x1="26.782" y1="50" x2="26.782" y2="78" stroke="white" stroke-width="3"/>
<line x1="32.5608" y1="45.3333" x2="32.5608" y2="78" stroke="white" stroke-width="3"/>
<line x1="38.3396" y1="40.6667" x2="38.3396" y2="78" stroke="white" stroke-width="3"/>
<line x1="44.1183" y1="36" x2="44.1183" y2="78" stroke="white" stroke-width="3"/>
<path d="M92.686 19.22C91.9967 19.22 91.4027 19.1613 90.904 19.044C90.4053 18.9267 89.8993 18.736 89.386 18.472V16.008H89.694L90.398 17.218C90.8527 18.0247 91.5933 18.428 92.62 18.428C93.2067 18.428 93.6613 18.2887 93.984 18.01C94.3213 17.7313 94.49 17.35 94.49 16.866C94.49 16.4407 94.3873 16.1107 94.182 15.876C93.9767 15.6413 93.6833 15.436 93.302 15.26C92.9353 15.0693 92.4953 14.8567 91.982 14.622C91.234 14.2847 90.6547 13.918 90.244 13.522C89.848 13.1113 89.65 12.5393 89.65 11.806C89.65 11.2633 89.804 10.772 90.112 10.332C90.42 9.892 90.8087 9.54 91.278 9.276C91.762 9.012 92.2607 8.88 92.774 8.88C93.3167 8.88 93.8153 8.946 94.27 9.078C94.7247 9.21 95.1867 9.39333 95.656 9.628V12.026H95.348L94.622 10.86C94.3727 10.464 94.1013 10.178 93.808 10.002C93.5147 9.826 93.1993 9.738 92.862 9.738C92.3633 9.738 91.96 9.86267 91.652 10.112C91.3587 10.3613 91.212 10.706 91.212 11.146C91.212 11.6447 91.388 12.026 91.74 12.29C92.1067 12.5393 92.6347 12.8253 93.324 13.148C93.7347 13.3533 94.1453 13.5587 94.556 13.764C94.9813 13.9693 95.326 14.2627 95.59 14.644C95.8687 15.0107 96.008 15.5387 96.008 16.228C96.008 16.8733 95.832 17.4233 95.48 17.878C95.128 18.318 94.6953 18.6553 94.182 18.89C93.6687 19.11 93.17 19.22 92.686 19.22ZM102.358 19L98.9041 10.134L97.4301 9.452V9.1H102.688V9.452L100.884 10.112V10.244L103.172 16.338H103.26L106.384 9.1H106.846L109.97 16.272H110.058L112.28 10.376V10.244L110.696 9.452V9.1H115.008V9.452L113.38 10.222L109.706 19H109.244L106.076 11.828L102.82 19H102.358ZM118.329 6.218C117.947 6.218 117.632 6.09333 117.383 5.844C117.133 5.58 117.009 5.26467 117.009 4.898C117.009 4.51667 117.133 4.20133 117.383 3.952C117.632 3.70267 117.947 3.578 118.329 3.578C118.71 3.578 119.025 3.70267 119.275 3.952C119.524 4.20133 119.649 4.51667 119.649 4.898C119.649 5.26467 119.524 5.58 119.275 5.844C119.025 6.09333 118.71 6.218 118.329 6.218ZM116.129 19V18.648L117.515 17.944V11.388L116.195 10.244V10.09L119.143 8.88H119.275V17.944L120.661 18.648V19H116.129ZM126.853 19.22C126.208 19.22 125.65 19.0293 125.181 18.648C124.712 18.2667 124.477 17.7313 124.477 17.042V10.134H122.673V10.002L124.543 9.1L126.105 6.68H126.237V9.1H129.141V10.134H126.237V16.668C126.237 17.0493 126.406 17.328 126.743 17.504C127.08 17.68 127.476 17.768 127.931 17.768C128.21 17.768 128.466 17.7533 128.701 17.724C128.95 17.6947 129.163 17.658 129.339 17.614H129.405V17.834C129.258 18.1713 128.965 18.4867 128.525 18.78C128.1 19.0733 127.542 19.22 126.853 19.22ZM136.192 19.22C134.77 19.22 133.648 18.7873 132.826 17.922C132.005 17.0567 131.594 15.9127 131.594 14.49C131.594 13.39 131.814 12.422 132.254 11.586C132.709 10.7353 133.318 10.0753 134.08 9.606C134.843 9.122 135.701 8.88 136.654 8.88C137.241 8.88 137.813 8.98267 138.37 9.188C138.928 9.37867 139.353 9.63533 139.646 9.958C139.881 10.2367 139.998 10.4567 139.998 10.618C139.998 10.8233 139.903 10.9993 139.712 11.146L138.876 11.85H138.722L137.974 10.838C137.754 10.5447 137.476 10.31 137.138 10.134C136.816 9.94333 136.412 9.848 135.928 9.848C135.122 9.848 134.484 10.1707 134.014 10.816C133.56 11.4467 133.332 12.334 133.332 13.478C133.332 14.182 133.45 14.8493 133.684 15.48C133.919 16.096 134.308 16.602 134.85 16.998C135.408 17.3793 136.17 17.57 137.138 17.57C137.945 17.57 138.891 17.2767 139.976 16.69H140.042V16.91C139.705 17.5407 139.199 18.0833 138.524 18.538C137.864 18.9927 137.087 19.22 136.192 19.22ZM142.518 19V18.648L143.904 17.944V5.008L142.584 3.864V3.71L145.532 2.5H145.664V10.508H145.752C146.309 9.95067 146.844 9.54 147.358 9.276C147.886 9.012 148.465 8.88 149.096 8.88C149.961 8.88 150.665 9.1 151.208 9.54C151.765 9.96533 152.044 10.6033 152.044 11.454V17.944L153.43 18.648V19H148.722V18.648L150.284 18.01V12.488C150.284 11.8427 150.078 11.3513 149.668 11.014C149.272 10.6767 148.751 10.508 148.106 10.508C147.71 10.508 147.27 10.574 146.786 10.706C146.316 10.838 145.942 11.0287 145.664 11.278V18.01L147.226 18.648V19H142.518ZM160.404 19.22C158.982 19.22 157.86 18.7873 157.038 17.922C156.217 17.0567 155.806 15.9127 155.806 14.49C155.806 13.39 156.019 12.422 156.444 11.586C156.884 10.7353 157.456 10.0753 158.16 9.606C158.879 9.122 159.656 8.88 160.492 8.88C161.651 8.88 162.56 9.28333 163.22 10.09C163.895 10.8967 164.232 12.0553 164.232 13.566L164.122 13.676H157.544C157.559 14.3507 157.691 14.9887 157.94 15.59C158.19 16.1767 158.586 16.6533 159.128 17.02C159.686 17.3867 160.426 17.57 161.35 17.57C162.157 17.57 163.103 17.2767 164.188 16.69H164.254V16.91C163.917 17.5407 163.411 18.0833 162.736 18.538C162.076 18.9927 161.299 19.22 160.404 19.22ZM160.14 9.848C159.436 9.848 158.857 10.0973 158.402 10.596C157.962 11.08 157.691 11.7693 157.588 12.664H162.56C162.399 11.6667 162.113 10.948 161.702 10.508C161.306 10.068 160.786 9.848 160.14 9.848ZM166.947 19V18.648L168.333 17.944V11.388L167.013 10.244V10.09L169.741 8.88H169.873L170.071 10.75H170.159C170.496 10.2073 170.804 9.804 171.083 9.54C171.376 9.26133 171.647 9.08533 171.897 9.012C172.146 8.924 172.395 8.88 172.645 8.88C172.762 8.88 172.894 8.902 173.041 8.946C173.202 8.99 173.334 9.034 173.437 9.078C173.598 9.15133 173.745 9.23933 173.877 9.342C174.023 9.44467 174.097 9.562 174.097 9.694C174.097 9.826 174.067 9.958 174.009 10.09L173.569 11.168H173.415L172.579 10.838C172.417 10.7647 172.256 10.7207 172.095 10.706C171.948 10.6913 171.801 10.684 171.655 10.684C171.039 10.684 170.518 10.9993 170.093 11.63V17.944L171.655 18.648V19H166.947ZM178.375 6.218C177.993 6.218 177.678 6.09333 177.429 5.844C177.179 5.58 177.055 5.26467 177.055 4.898C177.055 4.51667 177.179 4.20133 177.429 3.952C177.678 3.70267 177.993 3.578 178.375 3.578C178.756 3.578 179.071 3.70267 179.321 3.952C179.57 4.20133 179.695 4.51667 179.695 4.898C179.695 5.26467 179.57 5.58 179.321 5.844C179.071 6.09333 178.756 6.218 178.375 6.218ZM176.175 19V18.648L177.561 17.944V11.388L176.241 10.244V10.09L179.189 8.88H179.321V17.944L180.707 18.648V19H176.175ZM187.009 19.22C186.32 19.22 185.726 19.1613 185.227 19.044C184.729 18.9267 184.223 18.736 183.709 18.472V16.008H184.017L184.721 17.218C185.176 18.0247 185.917 18.428 186.943 18.428C187.53 18.428 187.985 18.2887 188.307 18.01C188.645 17.7313 188.813 17.35 188.813 16.866C188.813 16.4407 188.711 16.1107 188.505 15.876C188.3 15.6413 188.007 15.436 187.625 15.26C187.259 15.0693 186.819 14.8567 186.305 14.622C185.557 14.2847 184.978 13.918 184.567 13.522C184.171 13.1113 183.973 12.5393 183.973 11.806C183.973 11.2633 184.127 10.772 184.435 10.332C184.743 9.892 185.132 9.54 185.601 9.276C186.085 9.012 186.584 8.88 187.097 8.88C187.64 8.88 188.139 8.946 188.593 9.078C189.048 9.21 189.51 9.39333 189.979 9.628V12.026H189.671L188.945 10.86C188.696 10.464 188.425 10.178 188.131 10.002C187.838 9.826 187.523 9.738 187.185 9.738C186.687 9.738 186.283 9.86267 185.975 10.112C185.682 10.3613 185.535 10.706 185.535 11.146C185.535 11.6447 185.711 12.026 186.063 12.29C186.43 12.5393 186.958 12.8253 187.647 13.148C188.058 13.3533 188.469 13.5587 188.879 13.764C189.305 13.9693 189.649 14.2627 189.913 14.644C190.192 15.0107 190.331 15.5387 190.331 16.228C190.331 16.8733 190.155 17.4233 189.803 17.878C189.451 18.318 189.019 18.6553 188.505 18.89C187.992 19.11 187.493 19.22 187.009 19.22ZM196.621 19.22C195.975 19.22 195.418 19.0293 194.949 18.648C194.479 18.2667 194.245 17.7313 194.245 17.042V10.134H192.441V10.002L194.311 9.1L195.873 6.68H196.005V9.1H198.909V10.134H196.005V16.668C196.005 17.0493 196.173 17.328 196.511 17.504C196.848 17.68 197.244 17.768 197.699 17.768C197.977 17.768 198.234 17.7533 198.469 17.724C198.718 17.6947 198.931 17.658 199.107 17.614H199.173V17.834C199.026 18.1713 198.733 18.4867 198.293 18.78C197.867 19.0733 197.31 19.22 196.621 19.22ZM203.65 6.218C203.269 6.218 202.953 6.09333 202.704 5.844C202.455 5.58 202.33 5.26467 202.33 4.898C202.33 4.51667 202.455 4.20133 202.704 3.952C202.953 3.70267 203.269 3.578 203.65 3.578C204.031 3.578 204.347 3.70267 204.596 3.952C204.845 4.20133 204.97 4.51667 204.97 4.898C204.97 5.26467 204.845 5.58 204.596 5.844C204.347 6.09333 204.031 6.218 203.65 6.218ZM201.45 19V18.648L202.836 17.944V11.388L201.516 10.244V10.09L204.464 8.88H204.596V17.944L205.982 18.648V19H201.45ZM213.296 19.22C211.874 19.22 210.752 18.7873 209.93 17.922C209.109 17.0567 208.698 15.9127 208.698 14.49C208.698 13.39 208.918 12.422 209.358 11.586C209.813 10.7353 210.422 10.0753 211.184 9.606C211.947 9.122 212.805 8.88 213.758 8.88C214.345 8.88 214.917 8.98267 215.474 9.188C216.032 9.37867 216.457 9.63533 216.75 9.958C216.985 10.2367 217.102 10.4567 217.102 10.618C217.102 10.8233 217.007 10.9993 216.816 11.146L215.98 11.85H215.826L215.078 10.838C214.858 10.5447 214.58 10.31 214.242 10.134C213.92 9.94333 213.516 9.848 213.032 9.848C212.226 9.848 211.588 10.1707 211.118 10.816C210.664 11.4467 210.436 12.334 210.436 13.478C210.436 14.182 210.554 14.8493 210.788 15.48C211.023 16.096 211.412 16.602 211.954 16.998C212.512 17.3793 213.274 17.57 214.242 17.57C215.049 17.57 215.995 17.2767 217.08 16.69H217.146V16.91C216.809 17.5407 216.303 18.0833 215.628 18.538C214.968 18.9927 214.191 19.22 213.296 19.22ZM92.576 44.22C91.9307 44.22 91.3733 44.0293 90.904 43.648C90.4347 43.2667 90.2 42.7313 90.2 42.042V35.134H88.396V35.002L90.266 34.1L91.828 31.68H91.96V34.1H94.864V35.134H91.96V41.668C91.96 42.0493 92.1287 42.328 92.466 42.504C92.8033 42.68 93.1993 42.768 93.654 42.768C93.9327 42.768 94.1893 42.7533 94.424 42.724C94.6733 42.6947 94.886 42.658 95.062 42.614H95.128V42.834C94.9813 43.1713 94.688 43.4867 94.248 43.78C93.8227 44.0733 93.2653 44.22 92.576 44.22ZM101.915 44.22C100.493 44.22 99.3707 43.7873 98.5493 42.922C97.728 42.0567 97.3173 40.9127 97.3173 39.49C97.3173 38.39 97.53 37.422 97.9553 36.586C98.3953 35.7353 98.9673 35.0753 99.6713 34.606C100.39 34.122 101.167 33.88 102.003 33.88C103.162 33.88 104.071 34.2833 104.731 35.09C105.406 35.8967 105.743 37.0553 105.743 38.566L105.633 38.676H99.0553C99.07 39.3507 99.202 39.9887 99.4513 40.59C99.7007 41.1767 100.097 41.6533 100.639 42.02C101.197 42.3867 101.937 42.57 102.861 42.57C103.668 42.57 104.614 42.2767 105.699 41.69H105.765V41.91C105.428 42.5407 104.922 43.0833 104.247 43.538C103.587 43.9927 102.81 44.22 101.915 44.22ZM101.651 34.848C100.947 34.848 100.368 35.0973 99.9133 35.596C99.4733 36.08 99.202 36.7693 99.0993 37.664H104.071C103.91 36.6667 103.624 35.948 103.213 35.508C102.817 35.068 102.297 34.848 101.651 34.848ZM108.282 44V43.648L109.668 42.944V30.008L108.348 28.864V28.71L111.296 27.5H111.428V42.944L112.814 43.648V44H108.282ZM119.918 44.22C118.496 44.22 117.374 43.7873 116.552 42.922C115.731 42.0567 115.32 40.9127 115.32 39.49C115.32 38.39 115.533 37.422 115.958 36.586C116.398 35.7353 116.97 35.0753 117.674 34.606C118.393 34.122 119.17 33.88 120.006 33.88C121.165 33.88 122.074 34.2833 122.734 35.09C123.409 35.8967 123.746 37.0553 123.746 38.566L123.636 38.676H117.058C117.073 39.3507 117.205 39.9887 117.454 40.59C117.704 41.1767 118.1 41.6533 118.642 42.02C119.2 42.3867 119.94 42.57 120.864 42.57C121.671 42.57 122.617 42.2767 123.702 41.69H123.768V41.91C123.431 42.5407 122.925 43.0833 122.25 43.538C121.59 43.9927 120.813 44.22 119.918 44.22ZM119.654 34.848C118.95 34.848 118.371 35.0973 117.916 35.596C117.476 36.08 117.205 36.7693 117.102 37.664H122.074C121.913 36.6667 121.627 35.948 121.216 35.508C120.82 35.068 120.3 34.848 119.654 34.848ZM131.015 44.22C129.592 44.22 128.47 43.7873 127.649 42.922C126.827 42.0567 126.417 40.9127 126.417 39.49C126.417 38.39 126.637 37.422 127.077 36.586C127.531 35.7353 128.14 35.0753 128.903 34.606C129.665 34.122 130.523 33.88 131.477 33.88C132.063 33.88 132.635 33.9827 133.193 34.188C133.75 34.3787 134.175 34.6353 134.469 34.958C134.703 35.2367 134.821 35.4567 134.821 35.618C134.821 35.8233 134.725 35.9993 134.535 36.146L133.699 36.85H133.545L132.797 35.838C132.577 35.5447 132.298 35.31 131.961 35.134C131.638 34.9433 131.235 34.848 130.751 34.848C129.944 34.848 129.306 35.1707 128.837 35.816C128.382 36.4467 128.155 37.334 128.155 38.478C128.155 39.182 128.272 39.8493 128.507 40.48C128.741 41.096 129.13 41.602 129.673 41.998C130.23 42.3793 130.993 42.57 131.961 42.57C132.767 42.57 133.713 42.2767 134.799 41.69H134.865V41.91C134.527 42.5407 134.021 43.0833 133.347 43.538C132.687 43.9927 131.909 44.22 131.015 44.22ZM142.224 44.22C141.256 44.22 140.405 43.9927 139.672 43.538C138.953 43.0833 138.389 42.4673 137.978 41.69C137.582 40.9127 137.384 40.0327 137.384 39.05C137.384 38.0673 137.582 37.1873 137.978 36.41C138.389 35.6327 138.953 35.0167 139.672 34.562C140.405 34.1073 141.256 33.88 142.224 33.88C143.192 33.88 144.035 34.1073 144.754 34.562C145.487 35.0167 146.052 35.6327 146.448 36.41C146.859 37.1873 147.064 38.0673 147.064 39.05C147.064 40.0327 146.859 40.9127 146.448 41.69C146.052 42.4673 145.487 43.0833 144.754 43.538C144.035 43.9927 143.192 44.22 142.224 44.22ZM142.532 43.274C143.119 43.274 143.603 43.0907 143.984 42.724C144.365 42.3573 144.644 41.888 144.82 41.316C144.996 40.7293 145.084 40.1207 145.084 39.49C145.084 38.7127 144.974 37.9647 144.754 37.246C144.549 36.5273 144.211 35.9407 143.742 35.486C143.287 35.0313 142.693 34.804 141.96 34.804C141.359 34.804 140.867 34.9873 140.486 35.354C140.105 35.7207 139.819 36.19 139.628 36.762C139.452 37.334 139.364 37.9427 139.364 38.588C139.364 39.3653 139.474 40.1133 139.694 40.832C139.914 41.5507 140.259 42.1373 140.728 42.592C141.197 43.0467 141.799 43.274 142.532 43.274ZM149.661 44V43.648L151.047 42.944V36.388L149.727 35.244V35.09L152.455 33.88H152.587L152.785 35.508H152.895C153.438 34.9507 153.958 34.54 154.457 34.276C154.97 34.012 155.528 33.88 156.129 33.88C156.833 33.88 157.434 34.0413 157.933 34.364C158.432 34.672 158.754 35.1413 158.901 35.772H158.967C159.583 35.1267 160.155 34.65 160.683 34.342C161.226 34.034 161.82 33.88 162.465 33.88C163.286 33.88 163.961 34.1 164.489 34.54C165.032 34.9653 165.303 35.6033 165.303 36.454V42.944L166.689 43.648V44H161.981V43.648L163.543 42.944V37.488C163.543 36.8427 163.345 36.3513 162.949 36.014C162.568 35.6767 162.076 35.508 161.475 35.508C160.976 35.508 160.507 35.5887 160.067 35.75C159.627 35.9113 159.26 36.1533 158.967 36.476V42.944L160.485 43.648V44H155.733V43.648L157.207 42.944V37.488C157.207 36.8427 157.009 36.3513 156.613 36.014C156.232 35.6767 155.74 35.508 155.139 35.508C154.772 35.508 154.362 35.574 153.907 35.706C153.452 35.838 153.086 36.0287 152.807 36.278V42.944L154.237 43.648V44H149.661ZM169.029 44V43.648L170.415 42.944V36.388L169.095 35.244V35.09L171.823 33.88H171.955L172.153 35.508H172.263C172.805 34.9507 173.326 34.54 173.825 34.276C174.338 34.012 174.895 33.88 175.497 33.88C176.201 33.88 176.802 34.0413 177.301 34.364C177.799 34.672 178.122 35.1413 178.269 35.772H178.335C178.951 35.1267 179.523 34.65 180.051 34.342C180.593 34.034 181.187 33.88 181.833 33.88C182.654 33.88 183.329 34.1 183.857 34.54C184.399 34.9653 184.671 35.6033 184.671 36.454V42.944L186.057 43.648V44H181.349V43.648L182.911 42.944V37.488C182.911 36.8427 182.713 36.3513 182.317 36.014C181.935 35.6767 181.444 35.508 180.843 35.508C180.344 35.508 179.875 35.5887 179.435 35.75C178.995 35.9113 178.628 36.1533 178.335 36.476V42.944L179.853 43.648V44H175.101V43.648L176.575 42.944V37.488C176.575 36.8427 176.377 36.3513 175.981 36.014C175.599 35.6767 175.108 35.508 174.507 35.508C174.14 35.508 173.729 35.574 173.275 35.706C172.82 35.838 172.453 36.0287 172.175 36.278V42.944L173.605 43.648V44H169.029ZM192.29 44.22C191.425 44.22 190.714 44.0073 190.156 43.582C189.614 43.142 189.342 42.4967 189.342 41.646V35.134L187.956 34.452V34.1H191.102V40.612C191.102 41.2573 191.3 41.7487 191.696 42.086C192.107 42.4233 192.635 42.592 193.28 42.592C193.676 42.592 194.109 42.526 194.578 42.394C195.062 42.262 195.444 42.0713 195.722 41.822V35.134L194.16 34.452V34.1H197.482V43.01L199.044 43.648V44H195.722V42.614H195.612C195.055 43.1713 194.512 43.582 193.984 43.846C193.471 44.0953 192.906 44.22 192.29 44.22ZM201.168 44V43.648L202.554 42.944V36.388L201.234 35.244V35.09L203.962 33.88H204.094L204.292 35.508H204.402C204.96 34.9507 205.495 34.54 206.008 34.276C206.536 34.012 207.116 33.88 207.746 33.88C208.612 33.88 209.316 34.1 209.858 34.54C210.416 34.9653 210.694 35.6033 210.694 36.454V42.944L212.08 43.648V44H207.372V43.648L208.934 42.944V37.488C208.934 36.8427 208.729 36.3513 208.318 36.014C207.922 35.6767 207.402 35.508 206.756 35.508C206.36 35.508 205.92 35.574 205.436 35.706C204.967 35.838 204.593 36.0287 204.314 36.278V42.944L205.876 43.648V44H201.168ZM216.638 31.218C216.256 31.218 215.941 31.0933 215.692 30.844C215.442 30.58 215.318 30.2647 215.318 29.898C215.318 29.5167 215.442 29.2013 215.692 28.952C215.941 28.7027 216.256 28.578 216.638 28.578C217.019 28.578 217.334 28.7027 217.584 28.952C217.833 29.2013 217.958 29.5167 217.958 29.898C217.958 30.2647 217.833 30.58 217.584 30.844C217.334 31.0933 217.019 31.218 216.638 31.218ZM214.438 44V43.648L215.824 42.944V36.388L214.504 35.244V35.09L217.452 33.88H217.584V42.944L218.97 43.648V44H214.438ZM226.284 44.22C224.861 44.22 223.739 43.7873 222.918 42.922C222.097 42.0567 221.686 40.9127 221.686 39.49C221.686 38.39 221.906 37.422 222.346 36.586C222.801 35.7353 223.409 35.0753 224.172 34.606C224.935 34.122 225.793 33.88 226.746 33.88C227.333 33.88 227.905 33.9827 228.462 34.188C229.019 34.3787 229.445 34.6353 229.738 34.958C229.973 35.2367 230.09 35.4567 230.09 35.618C230.09 35.8233 229.995 35.9993 229.804 36.146L228.968 36.85H228.814L228.066 35.838C227.846 35.5447 227.567 35.31 227.23 35.134C226.907 34.9433 226.504 34.848 226.02 34.848C225.213 34.848 224.575 35.1707 224.106 35.816C223.651 36.4467 223.424 37.334 223.424 38.478C223.424 39.182 223.541 39.8493 223.776 40.48C224.011 41.096 224.399 41.602 224.942 41.998C225.499 42.3793 226.262 42.57 227.23 42.57C228.037 42.57 228.983 42.2767 230.068 41.69H230.134V41.91C229.797 42.5407 229.291 43.0833 228.616 43.538C227.956 43.9927 227.179 44.22 226.284 44.22ZM234.985 44.22C234.296 44.22 233.724 44.022 233.269 43.626C232.815 43.2153 232.587 42.6507 232.587 41.932C232.587 41.2133 232.851 40.59 233.379 40.062C233.922 39.534 234.824 39.1233 236.085 38.83L238.175 38.346V36.74C238.175 36.2413 237.97 35.816 237.559 35.464C237.163 35.0973 236.709 34.914 236.195 34.914C235.638 34.914 235.249 35.068 235.029 35.376C234.809 35.6693 234.699 36.0653 234.699 36.564V37.18L234.589 37.29H233.445C233.225 37.29 233.071 37.2533 232.983 37.18C232.91 37.1067 232.873 36.938 232.873 36.674C232.873 36.3513 232.969 36.0213 233.159 35.684C233.35 35.3467 233.643 35.0533 234.039 34.804C234.45 34.54 234.875 34.32 235.315 34.144C235.77 33.968 236.254 33.88 236.767 33.88C237.281 33.88 237.779 33.9533 238.263 34.1C238.762 34.2467 239.165 34.496 239.473 34.848C239.781 35.1853 239.935 35.662 239.935 36.278V42.526C240.038 42.6287 240.185 42.7167 240.375 42.79C240.566 42.8633 240.83 42.9 241.167 42.9H242.003L242.069 42.944V43.01C241.893 43.3327 241.629 43.6187 241.277 43.868C240.94 44.1027 240.522 44.22 240.023 44.22C239.569 44.22 239.195 44.1027 238.901 43.868C238.623 43.6187 238.425 43.296 238.307 42.9H238.175C237.794 43.2813 237.317 43.5967 236.745 43.846C236.188 44.0953 235.601 44.22 234.985 44.22ZM234.303 41.492C234.303 42.4013 234.853 42.856 235.953 42.856C236.305 42.856 236.65 42.8193 236.987 42.746C237.339 42.6727 237.735 42.5407 238.175 42.35V39.094C237.002 39.314 236.144 39.5487 235.601 39.798C235.059 40.0327 234.707 40.2893 234.545 40.568C234.384 40.8467 234.303 41.1547 234.303 41.492ZM247.333 44.22C246.688 44.22 246.13 44.0293 245.661 43.648C245.192 43.2667 244.957 42.7313 244.957 42.042V35.134H243.153V35.002L245.023 34.1L246.585 31.68H246.717V34.1H249.621V35.134H246.717V41.668C246.717 42.0493 246.886 42.328 247.223 42.504C247.56 42.68 247.956 42.768 248.411 42.768C248.69 42.768 248.946 42.7533 249.181 42.724C249.43 42.6947 249.643 42.658 249.819 42.614H249.885V42.834C249.738 43.1713 249.445 43.4867 249.005 43.78C248.58 44.0733 248.022 44.22 247.333 44.22ZM254.362 31.218C253.981 31.218 253.666 31.0933 253.416 30.844C253.167 30.58 253.042 30.2647 253.042 29.898C253.042 29.5167 253.167 29.2013 253.416 28.952C253.666 28.7027 253.981 28.578 254.362 28.578C254.744 28.578 255.059 28.7027 255.308 28.952C255.558 29.2013 255.682 29.5167 255.682 29.898C255.682 30.2647 255.558 30.58 255.308 30.844C255.059 31.0933 254.744 31.218 254.362 31.218ZM252.162 44V43.648L253.548 42.944V36.388L252.228 35.244V35.09L255.176 33.88H255.308V42.944L256.694 43.648V44H252.162ZM264.251 44.22C263.283 44.22 262.432 43.9927 261.699 43.538C260.98 43.0833 260.416 42.4673 260.005 41.69C259.609 40.9127 259.411 40.0327 259.411 39.05C259.411 38.0673 259.609 37.1873 260.005 36.41C260.416 35.6327 260.98 35.0167 261.699 34.562C262.432 34.1073 263.283 33.88 264.251 33.88C265.219 33.88 266.062 34.1073 266.781 34.562C267.514 35.0167 268.079 35.6327 268.475 36.41C268.886 37.1873 269.091 38.0673 269.091 39.05C269.091 40.0327 268.886 40.9127 268.475 41.69C268.079 42.4673 267.514 43.0833 266.781 43.538C266.062 43.9927 265.219 44.22 264.251 44.22ZM264.559 43.274C265.146 43.274 265.63 43.0907 266.011 42.724C266.392 42.3573 266.671 41.888 266.847 41.316C267.023 40.7293 267.111 40.1207 267.111 39.49C267.111 38.7127 267.001 37.9647 266.781 37.246C266.576 36.5273 266.238 35.9407 265.769 35.486C265.314 35.0313 264.72 34.804 263.987 34.804C263.386 34.804 262.894 34.9873 262.513 35.354C262.132 35.7207 261.846 36.19 261.655 36.762C261.479 37.334 261.391 37.9427 261.391 38.588C261.391 39.3653 261.501 40.1133 261.721 40.832C261.941 41.5507 262.286 42.1373 262.755 42.592C263.224 43.0467 263.826 43.274 264.559 43.274ZM271.688 44V43.648L273.074 42.944V36.388L271.754 35.244V35.09L274.482 33.88H274.614L274.812 35.508H274.922C275.479 34.9507 276.014 34.54 276.528 34.276C277.056 34.012 277.635 33.88 278.266 33.88C279.131 33.88 279.835 34.1 280.378 34.54C280.935 34.9653 281.214 35.6033 281.214 36.454V42.944L282.6 43.648V44H277.892V43.648L279.454 42.944V37.488C279.454 36.8427 279.248 36.3513 278.838 36.014C278.442 35.6767 277.921 35.508 277.276 35.508C276.88 35.508 276.44 35.574 275.956 35.706C275.486 35.838 275.112 36.0287 274.834 36.278V42.944L276.396 43.648V44H271.688ZM288.562 44.22C287.873 44.22 287.279 44.1613 286.78 44.044C286.282 43.9267 285.776 43.736 285.262 43.472V41.008H285.57L286.274 42.218C286.729 43.0247 287.47 43.428 288.496 43.428C289.083 43.428 289.538 43.2887 289.86 43.01C290.198 42.7313 290.366 42.35 290.366 41.866C290.366 41.4407 290.264 41.1107 290.058 40.876C289.853 40.6413 289.56 40.436 289.178 40.26C288.812 40.0693 288.372 39.8567 287.858 39.622C287.11 39.2847 286.531 38.918 286.12 38.522C285.724 38.1113 285.526 37.5393 285.526 36.806C285.526 36.2633 285.68 35.772 285.988 35.332C286.296 34.892 286.685 34.54 287.154 34.276C287.638 34.012 288.137 33.88 288.65 33.88C289.193 33.88 289.692 33.946 290.146 34.078C290.601 34.21 291.063 34.3933 291.532 34.628V37.026H291.224L290.498 35.86C290.249 35.464 289.978 35.178 289.684 35.002C289.391 34.826 289.076 34.738 288.738 34.738C288.24 34.738 287.836 34.8627 287.528 35.112C287.235 35.3613 287.088 35.706 287.088 36.146C287.088 36.6447 287.264 37.026 287.616 37.29C287.983 37.5393 288.511 37.8253 289.2 38.148C289.611 38.3533 290.022 38.5587 290.432 38.764C290.858 38.9693 291.202 39.2627 291.466 39.644C291.745 40.0107 291.884 40.5387 291.884 41.228C291.884 41.8733 291.708 42.4233 291.356 42.878C291.004 43.318 290.572 43.6553 290.058 43.89C289.545 44.11 289.046 44.22 288.562 44.22Z" fill="black"/>
<path d="M110.489 61.7984C110.625 62.0151 110.664 62.1698 110.608 62.2627C110.568 62.3556 110.403 62.402 110.115 62.402H92.4274C92.33 62.7735 92.2429 63.1062 92.1658 63.4003C92.0928 63.6789 92.0199 63.9575 91.9469 64.2361C91.8739 64.5147 91.7968 64.8088 91.7157 65.1183C91.6547 65.4124 91.5735 65.7529 91.4721 66.1399H95.3121L95.744 64.4915H94.616C94.328 64.4915 94.0338 64.5457 93.7334 64.654L93.4848 63.6789C93.7287 63.7253 93.9366 63.7563 94.1085 63.7718C94.2805 63.7873 94.4544 63.795 94.6304 63.795H97.7744L98.5454 62.9592C98.6779 62.8199 98.7761 62.7502 98.8401 62.7502C98.9082 62.7348 98.992 62.7812 99.0916 62.8895C99.2271 63.0443 99.3805 63.2223 99.5517 63.4235C99.739 63.6247 99.8486 63.7563 99.8803 63.8182C100.143 64.2206 100.034 64.4218 99.5542 64.4218H97.1782L96.7281 66.1399H98.5281L99.3052 65.2809C99.4417 65.1261 99.548 65.0564 99.6239 65.0719C99.7159 65.0874 99.8176 65.157 99.9292 65.2809C100.1 65.4821 100.254 65.691 100.389 65.9077C100.544 66.1089 100.654 66.2714 100.717 66.3952C100.817 66.5655 100.842 66.6816 100.794 66.7435C100.75 66.7899 100.632 66.8131 100.44 66.8131H99.2158L96.8617 75.8908C96.8452 76.0146 96.8149 76.0998 96.7708 76.1462C96.7225 76.2081 96.6343 76.27 96.5061 76.3319C96.3017 76.4403 96.1034 76.5254 95.9112 76.5873C95.719 76.6492 95.4767 76.7189 95.1845 76.7963C94.9762 76.8582 94.9066 76.7576 94.9755 76.4944L95.8149 73.2906C94.8497 73.6156 94.0167 73.8942 93.3159 74.1264C92.627 74.374 92.0523 74.583 91.5917 74.7532C91.127 74.9389 90.7605 75.086 90.4921 75.1943C90.2397 75.3027 90.0734 75.3878 89.9932 75.4497C89.8368 75.558 89.7227 75.5967 89.6508 75.5658C89.5749 75.5503 89.5131 75.4807 89.4655 75.3568C89.3984 75.1247 89.3332 74.8848 89.2701 74.6371C89.207 74.3895 89.152 74.1109 89.105 73.8013C89.4613 73.7239 89.8076 73.6543 90.1438 73.5924C90.4919 73.5459 90.8202 73.484 91.1284 73.4066L92.8558 66.8131H91.2478C91.1667 67.1227 91.0835 67.44 90.9984 67.765C90.9173 68.0746 90.8221 68.4073 90.7129 68.7633C90.4416 69.6765 90.1548 70.4659 89.8525 71.1314C89.5542 71.7815 89.194 72.3929 88.772 72.9655C88.35 73.5382 87.8379 74.1186 87.2358 74.7068C86.6338 75.2949 85.8954 75.9759 85.0206 76.7498L84.8114 76.5409C85.41 75.7825 85.9224 75.1092 86.3485 74.521C86.7906 73.9329 87.1767 73.3447 87.5067 72.7566C87.8368 72.1684 88.1391 71.5338 88.4135 70.8528C88.6879 70.1718 88.9648 69.3592 89.2441 68.4151C89.5559 67.3471 89.862 66.1786 90.1625 64.9094C90.479 63.6402 90.8139 62.2395 91.1673 60.7072C91.3711 60.7846 91.5488 60.8697 91.7004 60.9626C91.8562 61.04 91.9959 61.1173 92.1196 61.1947C92.2433 61.2721 92.365 61.3573 92.4847 61.4501C92.6244 61.5275 92.7701 61.6126 92.9218 61.7055H107.442L108.664 60.5215C108.837 60.3512 108.963 60.2661 109.043 60.2661C109.139 60.2661 109.257 60.3357 109.396 60.475C109.595 60.6917 109.799 60.9239 110.006 61.1715C110.213 61.4192 110.374 61.6281 110.489 61.7984ZM107.784 75.2408C107.176 75.2408 106.688 75.3027 106.319 75.4265C105.963 75.5658 105.604 75.8057 105.243 76.1462C105.09 76.301 104.942 76.3165 104.799 76.1926C104.288 75.7593 103.84 75.3336 103.453 74.9157C103.079 74.5133 102.766 74.0877 102.516 73.6388C102.167 73.9329 101.806 74.2115 101.433 74.4746C101.06 74.7377 100.655 75.0008 100.218 75.264C99.7809 75.5271 99.286 75.7979 98.733 76.0765C98.196 76.3551 97.5729 76.657 96.8638 76.982L96.7512 76.5873C97.4448 76.1385 98.0542 75.736 98.5795 75.3801C99.1047 75.0241 99.5679 74.6913 99.969 74.3817C100.37 74.0722 100.729 73.7704 101.046 73.4763C101.379 73.1822 101.684 72.8727 101.961 72.5476C101.756 71.9285 101.604 71.2552 101.507 70.5278C101.409 69.8003 101.452 68.9026 101.636 67.8347C101.231 68.2835 100.847 68.6782 100.486 69.0187C100.125 69.3592 99.6774 69.7539 99.1438 70.2028L98.7368 69.9242C99.3636 69.1193 99.9001 68.4151 100.346 67.8115C100.808 67.2078 101.214 66.6352 101.564 66.0934C101.93 65.5517 102.264 65.01 102.566 64.4683C102.888 63.9111 103.226 63.292 103.581 62.6109C104 62.7812 104.337 62.9282 104.593 63.0521C104.849 63.1759 105.076 63.2842 105.276 63.3771C105.579 63.5628 105.507 63.7176 105.058 63.8414C104.87 63.8879 104.676 64.0504 104.475 64.329C104.322 64.5457 104.163 64.7546 103.998 64.9558C103.85 65.157 103.707 65.366 103.57 65.5827H106.93L108.008 64.4915C108.177 64.3367 108.317 64.2593 108.429 64.2593C108.541 64.2593 108.665 64.3367 108.8 64.4915C109.087 64.801 109.292 65.0564 109.415 65.2576C109.559 65.4434 109.658 65.5827 109.714 65.6755C109.813 65.8458 109.831 65.9928 109.766 66.1166C109.722 66.225 109.604 66.2792 109.412 66.2792H105.812C106.107 66.372 106.357 66.4572 106.561 66.5345C106.764 66.6119 106.992 66.6893 107.244 66.7667C107.432 66.8441 107.505 66.9292 107.465 67.0221C107.429 67.0995 107.288 67.1769 107.044 67.2543C106.812 67.3471 106.637 67.5251 106.52 67.7882C106.049 68.7324 105.586 69.5837 105.131 70.3421C104.693 71.1005 104.248 71.7583 103.798 72.3155C104.675 73.368 106.056 74.2037 107.941 74.8229L107.784 75.2408ZM109.824 56.6443C109.967 56.7681 110.001 56.8842 109.924 56.9925C109.864 57.1009 109.618 57.2479 109.185 57.4337L108.826 58.8034C108.777 58.9892 108.727 59.1826 108.674 59.3838C108.625 59.5696 108.597 59.7398 108.588 59.8946C108.572 60.0184 108.487 60.1268 108.335 60.2196C108.075 60.3589 107.828 60.475 107.596 60.5679C107.364 60.6608 107.091 60.7536 106.779 60.8465C106.619 60.9084 106.565 60.8388 106.618 60.6375L106.745 60.15H102.977C102.929 60.3357 102.868 60.475 102.796 60.5679C102.74 60.6608 102.665 60.7304 102.573 60.7768C102.317 60.9007 102.102 60.9858 101.93 61.0322C101.774 61.0787 101.526 61.1406 101.186 61.218C101.065 61.2489 101.022 61.2025 101.054 61.0787C101.135 60.831 101.21 60.5756 101.279 60.3125C101.364 60.0494 101.426 59.8404 101.467 59.6857L101.99 57.689C102.079 57.3485 102.146 57.0622 102.191 56.83C102.256 56.5824 102.313 56.3038 102.362 55.9942C103.085 56.2264 103.704 56.4586 104.22 56.6907H107.46L107.936 56.0639C108.056 55.9091 108.159 55.824 108.243 55.8085C108.327 55.793 108.467 55.8395 108.662 55.9478C108.918 56.0716 109.133 56.1954 109.309 56.3193C109.504 56.4276 109.676 56.536 109.824 56.6443ZM101.075 56.7836C101.211 56.8765 101.231 56.9848 101.134 57.1086C101.054 57.2324 100.801 57.4027 100.376 57.6194L99.9809 59.1285C99.8796 59.5154 99.8022 59.9024 99.7488 60.2893C99.7243 60.4441 99.6379 60.5602 99.4896 60.6375C99.2131 60.7768 98.9607 60.8852 98.7324 60.9626C98.5242 61.0245 98.268 61.0864 97.9638 61.1483C97.8117 61.1793 97.7559 61.1173 97.7964 60.9626L97.9971 60.1964H94.5891C94.5202 60.4595 94.4456 60.6221 94.3654 60.684C93.8726 60.9161 93.3241 61.0554 92.7199 61.1019C92.6318 61.1328 92.604 61.0864 92.6364 60.9626C92.7173 60.7149 92.7922 60.4595 92.8611 60.1964C92.9461 59.9333 93.0108 59.7166 93.0554 59.5464L93.5299 57.7355C93.6191 57.395 93.6881 57.1009 93.737 56.8532C93.8059 56.5901 93.8649 56.3038 93.914 55.9942C94.2816 56.1181 94.6231 56.2496 94.9386 56.3889C95.2582 56.5127 95.5377 56.6366 95.7773 56.7604H98.5133L99.1518 56.0639C99.2441 55.9555 99.3223 55.9014 99.3863 55.9014C99.4663 55.9014 99.6062 55.9478 99.8058 56.0407C100.061 56.1645 100.299 56.296 100.518 56.4353C100.742 56.5592 100.928 56.6753 101.075 56.7836ZM103.064 71.1779C103.471 70.5433 103.865 69.8313 104.248 69.0419C104.647 68.2526 105.048 67.3316 105.452 66.2792H103.076C102.951 66.4494 102.825 66.5965 102.696 66.7203C102.572 66.8286 102.431 66.9679 102.275 67.1382C102.288 67.943 102.349 68.6859 102.459 69.367C102.588 70.0325 102.79 70.6361 103.064 71.1779ZM107.487 57.3176H103.719L103.135 59.5464H106.903L107.487 57.3176ZM98.7331 57.3872H95.3491L95.319 57.4104L94.7716 59.4999H98.1796L98.7331 57.3872ZM96.4109 71.0153H93.4349L92.9118 73.012L96.0399 72.4315L96.4109 71.0153ZM97.5118 66.8131H94.5358L94.1404 68.3222H97.1164L97.5118 66.8131ZM96.9522 68.9491H93.9762L93.593 70.4117H96.569L96.9522 68.9491ZM133.472 61.1019H134L134.663 60.2196C134.832 60.003 135.004 59.8946 135.18 59.8946C135.372 59.8946 135.633 60.15 135.964 60.6608C136.314 61.156 136.465 61.4966 136.416 61.6823C136.388 61.7906 136.245 61.8448 135.989 61.8448H133.277L132.766 63.795C133.833 64.3058 134.523 64.7856 134.837 65.2344C137.006 63.795 138.75 62.3014 140.067 60.7536H137.307C136.875 60.7536 136.525 60.8078 136.257 60.9161L136.08 59.941C136.396 60.0184 136.786 60.0571 137.25 60.0571H140.634C141.14 59.4071 141.58 58.7957 141.954 58.223C140.79 58.3314 139.19 58.3933 137.153 58.4088L137.281 57.9212C141.155 57.4259 144.678 56.683 147.849 55.6924C148.192 56.0948 148.444 56.474 148.607 56.83C148.79 57.1705 148.871 57.3795 148.851 57.4569C148.814 57.5962 148.716 57.6658 148.556 57.6658C148.508 57.6658 148.438 57.6581 148.346 57.6426C148.274 57.6117 148.07 57.5962 147.734 57.5962C147.414 57.5962 146.838 57.6581 146.006 57.7819C145.193 57.8902 144.573 57.9676 144.145 58.0141C143.59 58.788 143.068 59.469 142.578 60.0571H147.546L148.377 59.1749C148.618 58.9273 148.802 58.8034 148.93 58.8034C149.074 58.8034 149.393 59.0511 149.887 59.5464C150.382 60.0417 150.609 60.3667 150.568 60.5215C150.527 60.6762 150.331 60.7536 149.979 60.7536H144.747C145.316 61.6359 145.964 62.3091 146.69 62.7735C147.42 63.2223 148.533 63.586 150.028 63.8646L149.925 64.2593C148.945 64.3367 148.169 64.6695 147.599 65.2576C147.487 65.3815 147.391 65.4434 147.311 65.4434C147.183 65.4434 146.869 65.2654 146.37 64.9094C145.876 64.5379 145.493 64.1974 145.222 63.8879C145.142 63.9498 145.048 64.0039 144.94 64.0504L144.666 65.0951C144.581 65.4202 144.516 65.6987 144.471 65.9309L144.367 66.5113C144.342 66.6042 144.262 66.6971 144.126 66.7899C143.994 66.8673 143.745 66.9602 143.381 67.0685C143.021 67.1614 142.76 67.2078 142.6 67.2078C142.504 67.2078 142.477 67.1304 142.517 66.9757L142.627 66.5578H139.339L139.278 66.7899C139.241 66.9292 139.201 67.0221 139.157 67.0685C139.133 67.0995 139.005 67.1614 138.772 67.2543C138.556 67.3471 138.32 67.4245 138.063 67.4864C137.811 67.5329 137.645 67.5561 137.565 67.5561C137.485 67.5561 137.461 67.4942 137.494 67.3703L137.87 66.1166L138.497 63.7253C137.715 64.2671 136.556 64.9326 135.022 65.722C135.061 65.8767 135.038 66.1166 134.953 66.4417C134.872 66.7512 134.687 67.0608 134.398 67.3703C134.129 67.6644 133.882 67.8115 133.658 67.8115C133.45 67.8115 133.308 67.7728 133.233 67.6954C133.173 67.618 133.138 67.4477 133.126 67.1846C133.095 65.838 132.91 64.9558 132.572 64.5379L129.506 76.2391C129.466 76.3938 129.353 76.5177 129.169 76.6105C129.001 76.7034 128.706 76.8195 128.286 76.9588C127.861 77.1136 127.601 77.1909 127.505 77.1909C127.425 77.1909 127.407 77.1058 127.452 76.9356L127.883 75.4729C128.009 75.055 128.161 74.5056 128.339 73.8245L130.133 66.9757C128.762 69.0342 127.059 71.0463 125.024 73.012L124.731 72.7566C126.029 71.1005 127.124 69.483 128.018 67.9043C128.932 66.3101 129.941 64.2903 131.045 61.8448H129.317C128.901 61.8448 128.547 61.8835 128.255 61.9609L128.102 60.9858C128.418 61.0632 128.808 61.1019 129.272 61.1019H131.672L132.536 57.8051C132.803 56.7836 133.01 55.9014 133.157 55.1584C133.465 55.2049 133.934 55.3364 134.566 55.5531C135.217 55.7543 135.52 55.9401 135.476 56.1103C135.431 56.2806 135.156 56.4431 134.652 56.5979L133.472 61.1019ZM144.051 60.7536H141.963C141.224 61.5585 140.454 62.2704 139.652 62.8895C139.859 62.9515 140.069 63.0366 140.281 63.1449H143.377L143.732 62.7967C143.905 62.6264 144.039 62.5413 144.135 62.5413C144.231 62.5413 144.365 62.6109 144.536 62.7502C144.306 62.224 144.144 61.5585 144.051 60.7536ZM142.803 65.8845L143.338 63.8414H140.05L139.515 65.8845H142.803ZM136.909 68.0436H144.613L145.18 67.3471C145.296 67.2078 145.435 67.1382 145.595 67.1382C145.771 67.1382 146.144 67.3007 146.715 67.6257C147.306 67.9353 147.581 68.1674 147.54 68.3222C147.5 68.477 147.239 68.6782 146.758 68.9259L145.39 74.1496C145.236 74.7377 145.024 75.2098 144.755 75.5658C144.486 75.9218 144.048 76.2468 143.443 76.5409C142.834 76.8504 142.426 77.0052 142.218 77.0052C142.074 77.0052 142.008 76.8272 142.022 76.4712C142.051 76.1152 141.924 75.8366 141.641 75.6354C141.357 75.4342 140.738 75.1711 139.783 74.8461L140.013 74.4282C140.713 74.5056 141.294 74.5443 141.758 74.5443C142.734 74.5443 143.285 74.3663 143.41 74.0103C143.548 73.6698 144.022 71.8898 144.833 68.6705H136.433L134.481 76.123C134.452 76.2313 134.414 76.3165 134.366 76.3784C134.334 76.4403 134.155 76.5409 133.831 76.6802C133.522 76.8195 133.226 76.9123 132.942 76.9588C132.654 77.0207 132.478 77.0516 132.414 77.0516C132.35 77.0516 132.334 76.9897 132.366 76.8659L132.834 75.264L134.44 69.1348C134.61 68.4847 134.758 67.8269 134.885 67.1614C135.719 67.4555 136.394 67.7495 136.909 68.0436ZM139.285 69.9706H141.229L141.542 69.5063C141.667 69.336 141.777 69.2509 141.873 69.2509C141.969 69.2509 142.207 69.3515 142.586 69.5527C142.985 69.7384 143.221 69.8777 143.293 69.9706C143.368 70.048 143.386 70.1641 143.345 70.3188C143.309 70.4581 143.142 70.6052 142.846 70.76L142.463 72.2226L142.224 73.4066C142.2 73.4995 142.116 73.5769 141.972 73.6388C141.827 73.7007 141.565 73.7858 141.185 73.8942C140.816 74.018 140.576 74.0799 140.464 74.0799C140.352 74.0799 140.316 74.0025 140.357 73.8478L140.466 73.4299H138.33L138.282 73.6156C138.237 73.7858 138.167 73.9019 138.07 73.9638C137.974 74.0258 137.728 74.1109 137.332 74.2192C136.951 74.3276 136.681 74.3817 136.521 74.3817C136.457 74.3817 136.441 74.3198 136.474 74.196L136.893 72.7798L137.355 71.0153C137.558 70.2415 137.696 69.6533 137.769 69.2509C138.301 69.4211 138.806 69.661 139.285 69.9706ZM140.618 72.8494L141.214 70.5742H139.078L138.482 72.8494H140.618ZM180.013 61.4501H180.949C181.203 60.7846 181.484 60.0184 181.791 59.1517H178.671C178.255 59.1517 177.901 59.1904 177.608 59.2678L177.354 58.3159C177.67 58.3933 178.059 58.432 178.523 58.432H182.051C182.431 57.3485 182.757 56.3502 183.028 55.437C184.095 55.5763 184.783 55.7002 185.091 55.8085C185.398 55.9168 185.538 56.0252 185.51 56.1335C185.485 56.2264 185.353 56.3347 185.112 56.4586C184.876 56.5669 184.679 56.7991 184.522 57.1551L183.995 58.432H186.899L188.019 57.2711C188.216 57.0699 188.387 56.9693 188.531 56.9693C188.675 56.9693 188.97 57.2479 189.416 57.8051C189.882 58.3468 190.09 58.7106 190.042 58.8963C189.997 59.0666 189.783 59.1517 189.399 59.1517H183.735C183.356 60.0494 183.019 60.8155 182.725 61.4501H185.125L185.787 60.7536C185.924 60.5988 186.04 60.5215 186.136 60.5215C186.232 60.5215 186.547 60.7227 187.082 61.1251C187.632 61.5275 187.892 61.7906 187.859 61.9145C187.819 62.0692 187.488 62.2627 186.867 62.4949L184.617 71.085H184.737L185.785 69.9242C185.941 69.7539 186.076 69.6688 186.188 69.6688C186.3 69.6688 186.523 69.9474 186.857 70.5046C187.191 71.0618 187.342 71.4023 187.309 71.5261C187.277 71.6499 187.076 71.7118 186.708 71.7118H174.516C174.1 71.7118 173.746 71.7505 173.454 71.8279L173.175 70.9689C173.491 71.0463 173.881 71.085 174.345 71.085H175.737L177.957 62.6109C178.135 61.9299 178.285 61.2644 178.408 60.6143C179.047 60.8001 179.582 61.0787 180.013 61.4501ZM184.726 63.795L185.17 62.1002H179.842L179.398 63.795H184.726ZM184.082 66.2559L184.55 64.4683H179.222L178.754 66.2559H184.082ZM183.486 68.5312L183.918 66.8828H178.59L178.158 68.5312H183.486ZM182.817 71.085L183.315 69.1812H177.987L177.489 71.085H182.817ZM173.772 58.2462C172.486 59.8559 171.255 61.2566 170.079 62.4484H173.751L174.655 61.4733C174.771 61.334 174.885 61.2644 174.997 61.2644C175.125 61.2644 175.396 61.512 175.811 62.0073C176.225 62.5026 176.416 62.8122 176.383 62.936C176.351 63.0598 176.167 63.1217 175.831 63.1217H173.071L172.25 66.2559H173.546L174.593 65.188C174.73 65.0332 174.862 64.9558 174.99 64.9558C175.118 64.9558 175.377 65.2189 175.768 65.7452C176.174 66.2714 176.361 66.5965 176.328 66.7203C176.3 66.8286 176.118 66.8828 175.782 66.8828H172.086L170.979 71.1082C171.766 70.0557 172.484 68.9336 173.132 67.7418C173.572 67.9585 173.961 68.1829 174.3 68.4151C174.639 68.6473 174.797 68.8098 174.772 68.9026C174.752 68.98 174.632 69.0419 174.412 69.0884C174.208 69.1348 174.045 69.2044 173.925 69.2973C173.809 69.3747 173.444 69.6997 172.83 70.2724C172.231 70.8451 171.519 71.4874 170.693 72.1994L170.462 73.0816L174.208 72.4315L174.224 72.9191L168.686 74.73C167.184 75.2098 166.087 75.6122 165.393 75.9372C165.209 76.0301 165.069 76.0765 164.973 76.0765C164.893 76.0765 164.835 75.9914 164.8 75.8212C164.776 75.6664 164.715 75.0163 164.615 73.871C165.839 73.7781 167.204 73.6079 168.709 73.3602L170.406 66.8828H167.982C167.55 66.8828 167.199 66.937 166.931 67.0453L166.64 66.1399C166.956 66.2173 167.346 66.2559 167.81 66.2559H170.57L171.391 63.1217H169.399C168.588 63.8956 167.665 64.7004 166.63 65.5362L166.301 65.3273C169.011 62.4949 171.409 59.2059 173.494 55.4603C174.001 55.6615 174.458 55.8704 174.866 56.0871C175.293 56.2883 175.533 56.4121 175.584 56.4586C175.652 56.505 175.676 56.5669 175.656 56.6443C175.639 56.7062 175.499 56.7836 175.235 56.8765C174.971 56.9693 174.636 57.2402 174.23 57.689C175.169 57.8902 175.906 58.1302 176.441 58.4088C176.997 58.6719 177.215 59.0279 177.098 59.4767C176.984 59.9101 176.809 60.2429 176.572 60.475C176.351 60.7072 176.145 60.8233 175.953 60.8233C175.857 60.8233 175.727 60.6762 175.564 60.3822C175.179 59.5928 174.582 58.8808 173.772 58.2462ZM167.289 67.6025C167.85 68.33 168.234 69.0032 168.44 69.6223C168.666 70.226 168.728 70.7213 168.627 71.1082C168.525 71.4951 168.282 71.8744 167.897 72.2458C167.531 72.6018 167.189 72.7798 166.869 72.7798C166.709 72.7798 166.609 72.7334 166.569 72.6405C166.55 72.5322 166.57 72.3619 166.631 72.1297C166.712 71.8821 166.764 71.7118 166.789 71.619C167.15 70.2415 167.176 68.98 166.868 67.8347L167.289 67.6025ZM180.474 71.9672C182.119 72.5863 183.296 73.0739 184.002 73.4299C184.721 73.8013 185.164 74.1264 185.331 74.405C185.494 74.699 185.521 75.055 185.411 75.4729C185.302 75.8908 185.139 76.2081 184.922 76.4248C184.701 76.657 184.503 76.773 184.327 76.773C184.151 76.773 183.987 76.6337 183.836 76.3551C182.89 74.6526 181.639 73.3525 180.082 72.4548L180.474 71.9672ZM177.029 72.1065C177.301 72.2303 177.688 72.4625 178.191 72.803C178.709 73.1435 178.953 73.3757 178.92 73.4995C178.884 73.6388 178.721 73.7085 178.433 73.7085C178.145 73.7085 177.913 73.7394 177.737 73.8013C177.557 73.8787 177.308 74.0025 176.992 74.1728C175.397 75.0086 174.235 75.5658 173.506 75.8444C172.773 76.1385 171.6 76.4944 169.986 76.9123L169.873 76.5177C171.5 75.8057 172.838 75.1247 173.889 74.4746C174.935 73.84 175.982 73.0507 177.029 72.1065ZM207.918 75.3104C208.142 75.2485 208.356 75.1943 208.56 75.1479C208.764 75.1015 209.031 75.0318 209.359 74.9389L209.925 72.7798C209.304 73.012 208.747 73.2132 208.255 73.3834C207.774 73.5692 207.283 73.7317 206.783 73.871C206.294 74.0258 205.76 74.1728 205.179 74.3121C204.599 74.4514 203.918 74.6062 203.138 74.7764L203.139 74.3121C204.249 73.9251 205.244 73.5459 206.125 73.1745C207.019 72.8185 207.842 72.4548 208.595 72.0833C209.364 71.7118 210.086 71.3404 210.759 70.9689C211.452 70.582 212.146 70.1641 212.839 69.7152H210.367C210.315 69.9164 210.256 70.048 210.192 70.1099C210.144 70.1718 210.058 70.226 209.934 70.2724C209.721 70.3498 209.479 70.4194 209.207 70.4814C208.951 70.5433 208.706 70.5897 208.474 70.6207C208.294 70.6361 208.241 70.5355 208.313 70.3188C208.398 70.1176 208.465 69.9242 208.513 69.7384C208.566 69.5372 208.625 69.3128 208.69 69.0651L209.146 67.3239C209.235 66.9834 209.3 66.7048 209.341 66.4881C209.398 66.2714 209.451 66.0083 209.5 65.6987C209.915 65.8226 210.273 65.9541 210.572 66.0934C210.892 66.2173 211.191 66.3875 211.47 66.6042H220.71L221.307 65.9773C221.419 65.8535 221.509 65.7839 221.577 65.7684C221.662 65.7529 221.783 65.7761 221.943 65.838C222.183 65.9619 222.384 66.078 222.548 66.1863C222.732 66.2792 222.935 66.3875 223.159 66.5113C223.406 66.6661 223.5 66.8286 223.439 66.9989C223.394 67.1691 223.116 67.3471 222.603 67.5329L222.384 68.3687C222.34 68.5389 222.295 68.7092 222.25 68.8794C222.206 69.0497 222.177 69.2199 222.165 69.3902C222.16 69.5295 222.134 69.6301 222.086 69.692C222.037 69.7539 221.933 69.8158 221.773 69.8777C221.561 69.9551 221.328 70.017 221.076 70.0635C220.844 70.0944 220.604 70.1254 220.356 70.1563C220.208 70.1718 220.116 70.1563 220.08 70.1099C220.044 70.0635 220.047 69.9319 220.087 69.7152H216.007C216.25 70.2569 216.498 70.7135 216.753 71.085C217.007 71.4565 217.32 71.8202 217.691 72.1762C218.744 71.6964 219.646 71.2475 220.396 70.8296C221.161 70.4117 221.889 69.9551 222.578 69.4598C222.782 69.661 222.967 69.87 223.134 70.0867C223.305 70.2879 223.491 70.5278 223.69 70.8064C223.821 70.9766 223.843 71.1082 223.754 71.2011C223.686 71.2785 223.532 71.3172 223.292 71.3172C223.18 71.3172 223.024 71.3326 222.824 71.3636C222.628 71.3791 222.333 71.4332 221.941 71.5261C221.569 71.6035 221.074 71.7196 220.458 71.8744C219.857 72.0291 219.089 72.2458 218.152 72.5244C218.671 72.803 219.152 73.0429 219.595 73.2441C220.054 73.4453 220.548 73.6079 221.075 73.7317C221.603 73.8555 222.193 73.9561 222.844 74.0335C223.508 74.1264 224.306 74.196 225.237 74.2424L225.116 74.7068C224.66 74.7377 224.29 74.7764 224.005 74.8229C223.717 74.8848 223.475 74.9544 223.279 75.0318C223.094 75.1247 222.944 75.2408 222.827 75.3801C222.711 75.5194 222.594 75.6896 222.478 75.8908C222.357 76.1075 222.225 76.2158 222.081 76.2158C221.948 76.2313 221.765 76.2004 221.529 76.123C220.658 75.8444 219.897 75.5426 219.246 75.2175C218.611 74.8925 218.053 74.4901 217.57 74.0103C217.1 73.5459 216.69 72.9733 216.34 72.2923C216.011 71.5958 215.714 70.7445 215.449 69.7384C214.928 70.1409 214.391 70.5123 213.837 70.8528C213.3 71.1933 212.655 71.5493 211.902 71.9208L211.269 74.3353C211.81 74.1651 212.457 73.9561 213.209 73.7085C213.958 73.4763 214.873 73.19 215.954 72.8494L216.037 73.2673C214.867 73.8245 213.887 74.2966 213.098 74.6836C212.305 75.086 211.663 75.4265 211.174 75.7051C210.685 75.9837 210.317 76.2004 210.068 76.3551C209.815 76.5254 209.645 76.657 209.557 76.7498C209.143 77.1677 208.881 77.2529 208.77 77.0052C208.615 76.7421 208.464 76.4635 208.317 76.1694C208.186 75.8753 208.053 75.589 207.918 75.3104ZM229.642 58.7106C229.81 58.9273 229.843 59.1052 229.743 59.2445C229.642 59.3838 229.394 59.4148 228.998 59.3374C228.65 59.26 228.186 59.3219 227.606 59.5231C227.041 59.7244 226.32 60.0339 225.442 60.4518C225.474 60.5756 225.455 60.6762 225.387 60.7536C225.323 60.8155 225.073 60.9161 224.636 61.0554L224.192 62.7502C224.148 62.9205 224.105 63.083 224.064 63.2378C224.044 63.3771 224.025 63.5087 224.009 63.6325C224.012 63.8027 223.898 63.9343 223.666 64.0272C223.433 64.12 223.215 64.1897 223.011 64.2361C222.823 64.2825 222.605 64.3212 222.356 64.3522C222.224 64.3677 222.138 64.3599 222.099 64.329C222.063 64.2825 222.061 64.1974 222.093 64.0736L222.173 63.7718H211.901C211.856 63.942 211.783 64.0659 211.683 64.1432C211.603 64.2052 211.493 64.2593 211.353 64.3058C211.124 64.3831 210.91 64.4373 210.71 64.4683C210.51 64.4992 210.294 64.5302 210.062 64.5611C209.93 64.5766 209.844 64.5689 209.804 64.5379C209.784 64.4915 209.81 64.3909 209.883 64.2361C210.028 63.8646 210.145 63.5396 210.234 63.261C210.323 62.9824 210.402 62.7116 210.471 62.4484L210.83 61.0787C210.923 60.7227 210.994 60.4209 211.043 60.1732C211.096 59.9101 211.147 59.6238 211.196 59.3142C211.612 59.438 211.955 59.5618 212.227 59.6857C212.503 59.794 212.75 59.9178 212.97 60.0571H222.834L223.376 59.4535C223.528 59.2987 223.647 59.2136 223.731 59.1981C223.835 59.1672 223.957 59.1904 224.096 59.2678C224.248 59.3606 224.428 59.4999 224.635 59.6857C224.858 59.8714 225.038 60.0417 225.173 60.1964C225.326 60.0417 225.456 59.9101 225.565 59.8017C225.677 59.6779 225.779 59.5618 225.872 59.4535C225.98 59.3452 226.083 59.2291 226.179 59.1052C226.291 58.9814 226.426 58.8344 226.583 58.6641H211.127C210.965 59.0975 210.778 59.4767 210.565 59.8017C210.371 60.1113 210.156 60.3822 209.92 60.6143C209.687 60.831 209.456 61.009 209.228 61.1483C208.999 61.2876 208.781 61.3882 208.573 61.4501C208.188 61.5739 207.844 61.6359 207.54 61.6359C207.24 61.6204 207.036 61.512 206.929 61.3108C206.83 61.1406 206.835 60.9084 206.944 60.6143C207.069 60.3202 207.358 60.0726 207.81 59.8714C208.211 59.6857 208.548 59.5309 208.82 59.4071C209.096 59.2678 209.345 59.113 209.566 58.9427C209.806 58.757 210.025 58.5326 210.222 58.2695C210.435 58.0063 210.67 57.6581 210.928 57.2247H211.504C211.471 57.3485 211.437 57.4801 211.4 57.6194C211.38 57.7587 211.353 57.8902 211.321 58.0141H218.209C218.186 57.6117 218.078 57.2324 217.883 56.8765C217.708 56.505 217.397 56.1645 216.951 55.8549L217.132 55.437C217.988 55.468 218.676 55.5299 219.195 55.6228C219.731 55.7156 220.121 55.8472 220.364 56.0174C220.611 56.1722 220.729 56.3657 220.716 56.5979C220.703 56.83 220.578 57.0931 220.341 57.3872C220.249 57.4956 220.132 57.6039 219.992 57.7123C219.868 57.8206 219.713 57.9212 219.529 58.0141H226.753L227.445 57.2944C227.602 57.1241 227.74 57.0545 227.86 57.0854C228 57.1009 228.14 57.1783 228.279 57.3176C228.562 57.5807 228.8 57.8051 228.991 57.9909C229.186 58.1611 229.403 58.401 229.642 58.7106ZM227.449 64.8862C227.628 65.1183 227.689 65.2809 227.633 65.3737C227.593 65.4666 227.412 65.513 227.092 65.513H207.508C207.316 65.513 207.112 65.5285 206.896 65.5595C206.696 65.5904 206.534 65.6291 206.41 65.6755L206.215 64.7701C206.431 64.801 206.625 64.8243 206.797 64.8397C206.973 64.8397 207.189 64.8397 207.445 64.8397H224.509L225.605 63.6789C225.781 63.4932 225.916 63.4081 226.008 63.4235C226.1 63.439 226.229 63.5241 226.397 63.6789C226.612 63.8956 226.797 64.1045 226.953 64.3058C227.128 64.4915 227.293 64.685 227.449 64.8862ZM220.702 67.3703H210.982L210.55 69.0187H220.27L220.702 67.3703ZM222.939 60.8465H220.491L219.907 63.0753H222.355L222.939 60.8465ZM214.923 60.8465H212.667L212.083 63.0753H214.339L214.923 60.8465ZM218.739 60.8465H216.531L215.947 63.0753H218.155L218.739 60.8465ZM256.847 58.5713C256.838 57.751 256.758 57.1086 256.608 56.6443C256.461 56.1645 256.187 55.6537 255.785 55.112L256.098 54.7405C257.281 55.0501 258.164 55.3751 258.747 55.7156C259.33 56.0561 259.562 56.4508 259.445 56.8997C259.388 57.1164 259.207 57.4104 258.902 57.7819C258.596 58.1534 258.311 58.4165 258.047 58.5713H264.959L266.013 57.4801C266.165 57.3253 266.282 57.2479 266.362 57.2479C266.442 57.2479 266.645 57.4182 266.972 57.7587C267.303 58.0837 267.609 58.4397 267.892 58.8267C268.195 59.1981 268.332 59.438 268.303 59.5464C268.267 59.6857 268.085 59.7708 267.757 59.8017C267.22 59.8327 266.804 59.8946 266.508 59.9875C266.216 60.0649 265.857 60.2429 265.432 60.5215C265.011 60.7846 264.387 61.2412 263.561 61.8912L263.262 61.7519C263.921 60.8233 264.416 60.003 264.746 59.291H250.442C250.239 60.3744 249.811 61.2721 249.161 61.9841C248.53 62.6806 247.823 63.0288 247.039 63.0288C246.175 63.0288 245.824 62.7193 245.986 62.1002C246.08 61.7442 246.507 61.365 247.268 60.9626C248.475 60.328 249.455 59.1517 250.209 57.4337H250.665C250.623 57.9599 250.588 58.3391 250.559 58.5713H256.847ZM255.532 63.7718H249.676C249.308 63.7718 248.998 63.8259 248.746 63.9343L248.599 62.936C248.899 63.0134 249.249 63.0521 249.649 63.0521H260.425L261.918 61.7519C262.086 61.5972 262.218 61.5198 262.314 61.5198C262.474 61.5198 262.809 61.8293 263.319 62.4484C263.845 63.0675 264.09 63.4467 264.053 63.586C264.021 63.7099 263.829 63.7718 263.477 63.7718H257.789L256.803 67.5329H262.131L263.636 66.0934C263.833 65.8922 264.003 65.7916 264.147 65.7916C264.307 65.7916 264.654 66.1476 265.188 66.8596C265.721 67.5716 265.97 67.9972 265.933 68.1365C265.897 68.2758 265.702 68.3454 265.35 68.3454H256.59L255.058 74.196C254.9 74.7996 254.708 75.2253 254.483 75.4729C254.274 75.7206 253.751 76.0069 252.914 76.3319C252.089 76.6724 251.572 76.8427 251.364 76.8427C251.252 76.8427 251.211 76.7266 251.24 76.4944C251.289 76.0611 251.258 75.7206 251.147 75.4729C251.032 75.2408 250.779 75.0163 250.388 74.7996C249.992 74.5984 249.343 74.3585 248.44 74.0799L248.676 73.6388C250.191 73.9019 251.196 74.0335 251.692 74.0335C252.188 74.0335 252.52 73.9561 252.689 73.8013C252.87 73.662 253.006 73.4144 253.1 73.0584L254.334 68.3454H245.238C244.87 68.3454 244.56 68.3996 244.308 68.508L244.186 67.4168C244.485 67.4942 244.835 67.5329 245.235 67.5329H254.547L255.532 63.7718ZM296.149 57.8748H290.029C289.597 57.8748 289.247 57.9289 288.979 58.0373L288.808 57.039C289.124 57.1164 289.514 57.1551 289.978 57.1551H302.722L304.034 55.9942C304.182 55.8549 304.305 55.7853 304.401 55.7853C304.497 55.7853 304.732 55.9555 305.107 56.296C305.502 56.6211 305.825 56.9152 306.076 57.1783C306.331 57.4259 306.444 57.6039 306.416 57.7123C306.388 57.8206 306.221 57.8748 305.917 57.8748H298.237L297.769 59.6624H304.513L305.361 58.9892C305.546 58.8344 305.694 58.757 305.806 58.757C305.934 58.757 306.283 59.0433 306.853 59.616C307.443 60.1732 307.718 60.5292 307.677 60.684C307.641 60.8233 307.421 60.9007 307.017 60.9161C306.617 60.9161 306.268 60.9626 305.972 61.0554C305.692 61.1483 305.331 61.365 304.89 61.7055C304.469 62.0305 303.797 62.6109 302.874 63.4467L302.514 63.261C303.33 62.1002 303.962 61.1251 304.409 60.3357H297.593L297.057 62.3788L296.509 64.654C296.461 64.8397 296.34 64.9945 296.148 65.1183C295.955 65.2422 295.669 65.3582 295.289 65.4666C294.924 65.5749 294.582 65.6291 294.262 65.6291C294.118 65.6291 294.064 65.5595 294.101 65.4202L294.489 64.12C294.651 63.5628 294.817 62.9592 294.988 62.3091L295.505 60.3357H289.049C288.841 61.4346 288.44 62.2937 287.846 62.9128C287.271 63.5164 286.672 63.8182 286.048 63.8182C285.68 63.8182 285.391 63.7331 285.179 63.5628C284.984 63.3926 284.923 63.1681 284.996 62.8895C285.069 62.6109 285.432 62.2937 286.085 61.9377C286.758 61.5662 287.28 61.1638 287.649 60.7304C288.035 60.297 288.425 59.6005 288.821 58.6409L289.211 58.6177C289.209 58.9892 289.19 59.3374 289.153 59.6624H295.681L296.149 57.8748ZM293.877 62.6109H289.173L289.349 61.9377H294.053L293.877 62.6109ZM302.216 62.6574H297.92L298.109 61.9377H302.405L302.216 62.6574ZM293.317 64.654H288.445L288.628 63.9575H293.5L293.317 64.654ZM301.765 64.654H297.421L297.604 63.9575H301.948L301.765 64.654ZM289.268 66.2792H300.068L300.784 65.6523C300.908 65.544 301.002 65.4898 301.066 65.4898C301.21 65.4898 301.498 65.6446 301.929 65.9541C302.364 66.2482 302.641 66.4417 302.761 66.5345C302.88 66.6274 302.928 66.7203 302.904 66.8131C302.879 66.906 302.535 67.0917 301.87 67.3703L301.201 69.9242C301.083 70.373 300.963 70.8606 300.842 71.3868L300.707 72.0833C300.675 72.2071 300.608 72.3077 300.508 72.3851C300.424 72.4625 300.137 72.5786 299.649 72.7334C299.16 72.8881 298.796 72.9655 298.556 72.9655C298.428 72.9655 298.382 72.8959 298.419 72.7566L298.613 72.0137H294.125L293.736 73.4995C293.61 73.9793 293.563 74.2811 293.595 74.405C293.626 74.5288 293.71 74.6062 293.846 74.6371C293.982 74.6681 294.456 74.6913 295.268 74.7068C296.076 74.7377 296.816 74.7532 297.488 74.7532C299.536 74.7532 300.748 74.6758 301.124 74.521C301.513 74.3817 302.224 73.1048 303.256 70.6903L303.622 70.76C303.424 71.3326 303.256 71.8821 303.118 72.4083C302.984 72.9191 302.937 73.3447 302.975 73.6852C303.01 74.0412 303.163 74.2811 303.435 74.405C303.702 74.5443 303.82 74.6758 303.788 74.7996C303.751 74.9389 303.578 75.1711 303.269 75.4961C302.956 75.8366 302.625 76.0611 302.277 76.1694C301.944 76.2778 301.332 76.3551 300.44 76.4016C299.548 76.448 298.214 76.4712 296.438 76.4712C294.662 76.4712 293.428 76.4171 292.736 76.3087C292.057 76.2158 291.635 76.0224 291.472 75.7283C291.325 75.4342 291.355 74.8925 291.562 74.1031L292.109 72.0137H287.693L287.383 73.1977C287.339 73.368 287.25 73.4918 287.118 73.5692C286.998 73.662 286.731 73.7626 286.319 73.871C285.902 73.9948 285.606 74.0567 285.43 74.0567C285.254 74.0567 285.194 73.9793 285.251 73.8245C285.493 73.2054 285.734 72.4393 285.973 71.5261L287.05 67.4168C287.22 66.7667 287.368 66.1089 287.495 65.4434C288.21 65.6446 288.801 65.9232 289.268 66.2792ZM293.429 66.9757H289.013L288.539 68.7866H292.955L293.429 66.9757ZM299.459 68.7866L299.933 66.9757H295.445L294.971 68.7866H299.459ZM292.778 69.4598H288.362L287.864 71.3636H292.28L292.778 69.4598ZM298.784 71.3636L299.282 69.4598H294.794L294.296 71.3636H298.784ZM329.299 59.5928C329.26 59.438 329.255 59.1826 329.284 58.8267C329.34 57.8206 329.055 56.7681 328.431 55.6692L328.763 55.2281C329.833 55.7234 330.613 56.1645 331.104 56.5514C331.599 56.9229 331.791 57.3176 331.682 57.7355C331.617 57.9831 331.432 58.2927 331.127 58.6641C330.821 59.0356 330.484 59.3452 330.115 59.5928H332.443L333.443 58.5248C333.62 58.3391 333.764 58.2462 333.876 58.2462C334.004 58.2462 334.341 58.5171 334.887 59.0588C335.437 59.5851 335.694 59.9178 335.658 60.0571C335.621 60.1964 335.459 60.2661 335.171 60.2661H326.387C325.955 60.2661 325.605 60.3202 325.336 60.4286L324.962 59.4767C325.277 59.5541 325.667 59.5928 326.131 59.5928H329.299ZM340.5 65.1183C340.938 63.4467 341.579 61.2412 342.425 58.5016H336.665C336.153 58.5016 335.757 58.5481 335.477 58.6409L335.162 57.7355C335.514 57.7974 335.946 57.8283 336.458 57.8283H342.65L343.348 56.9925C343.469 56.8378 343.577 56.7604 343.673 56.7604C343.785 56.7604 344.119 56.9848 344.673 57.4337C345.243 57.8825 345.51 58.1766 345.474 58.3159C345.437 58.4552 345.04 58.6874 344.283 59.0124C343.402 61.5817 342.731 63.7486 342.268 65.513C341.575 68.1597 341.274 70.1022 341.366 71.3404C341.473 72.5786 341.647 73.1977 341.887 73.1977C341.967 73.1977 342.077 73.1126 342.218 72.9423C342.359 72.7721 342.777 72.091 343.473 70.8993C344.19 69.692 344.628 68.9336 344.789 68.624L345.233 68.6705C344.201 70.9612 343.578 72.5167 343.363 73.337C343.144 74.1728 343.065 74.8383 343.128 75.3336C343.202 75.8444 343.209 76.2158 343.148 76.448C343.03 76.8969 342.763 77.1213 342.347 77.1213C341.931 77.1213 341.345 76.6724 340.588 75.7747C339.827 74.8925 339.423 73.6852 339.377 72.153C339.346 70.6207 339.658 68.5157 340.311 65.838H337.359L334.707 75.9605C334.647 76.1926 334.308 76.4171 333.691 76.6337C333.074 76.8504 332.678 76.9588 332.502 76.9588C332.406 76.9588 332.378 76.8814 332.419 76.7266L332.692 75.7747C332.894 75.1247 333.099 74.405 333.306 73.6156L335.343 65.838H333.951C333.535 65.838 333.181 65.8767 332.889 65.9541L332.736 64.979C333.052 65.0564 333.442 65.0951 333.906 65.0951H335.538L336.395 61.8216C336.663 60.8001 336.87 59.9178 337.017 59.1749C338.08 59.4535 338.777 59.6624 339.109 59.8017C339.46 59.9256 339.626 60.0262 339.605 60.1036C339.577 60.2119 339.268 60.4441 338.679 60.8001L337.554 65.0951H338.01L338.745 64.3058C338.885 64.1355 338.996 64.0504 339.076 64.0504C339.156 64.0504 339.247 64.0968 339.351 64.1897C339.459 64.2671 339.842 64.5766 340.5 65.1183ZM331.023 62.5413L331.812 61.6359C331.969 61.4656 332.103 61.3805 332.215 61.3805C332.343 61.3805 332.672 61.6204 333.202 62.1002C333.753 62.5645 334.01 62.8663 333.973 63.0056C333.937 63.1449 333.782 63.2146 333.51 63.2146H326.046C325.614 63.2146 325.264 63.2688 324.996 63.3771L324.741 62.4252C325.057 62.5026 325.447 62.5413 325.911 62.5413H331.023ZM330.178 65.5827L331.057 64.7004C331.234 64.5147 331.378 64.4218 331.49 64.4218C331.65 64.4218 331.915 64.6617 332.286 65.1416C332.66 65.6059 332.825 65.9232 332.78 66.0934C332.752 66.2018 332.578 66.2559 332.258 66.2559H325.106C324.674 66.2559 324.324 66.3101 324.055 66.4185L323.729 65.4666C324.044 65.544 324.434 65.5827 324.898 65.5827H330.178ZM326.519 68.6473H329.087L329.593 68.0901C329.726 67.9508 329.856 67.8811 329.984 67.8811C330.112 67.8811 330.455 68.0668 331.014 68.4383C331.593 68.7943 331.862 69.0497 331.821 69.2044C331.785 69.3437 331.452 69.5759 330.823 69.9009L329.698 74.196C329.617 74.5056 329.552 74.7842 329.503 75.0318L329.399 75.6122C329.37 75.7206 329.246 75.8289 329.025 75.9372C328.805 76.0456 328.515 76.1462 328.154 76.2391C327.79 76.3474 327.504 76.4016 327.296 76.4016C327.2 76.4016 327.174 76.3165 327.219 76.1462L327.821 73.8478H324.677L324.081 76.123C324.036 76.2932 323.95 76.4093 323.822 76.4712C323.705 76.5486 323.431 76.6492 322.999 76.773C322.562 76.9123 322.272 76.982 322.128 76.982C322 76.982 321.944 76.951 321.96 76.8891C321.976 76.8272 322.029 76.657 322.118 76.3784C322.203 76.1152 322.318 75.7051 322.464 75.1479L323.869 69.7849C324.04 69.1348 324.188 68.477 324.314 67.8115C324.99 67.9817 325.725 68.2603 326.519 68.6473ZM327.991 73.1977L329.013 69.2973H325.869L324.847 73.1977H327.991Z" fill="black"/>
</g>
<defs>
<clipPath id="clip0_138_7">
<rect width="351.616" height="80.8901" fill="white"/>
</clipPath>
</defs>
</svg>
